<?xml version="1.0" standalone="no"?>
<!DOCTYPE svg PUBLIC "-//W3C//DTD SVG 20010904//EN"
 "http://www.w3.org/TR/2001/REC-SVG-20010904/DTD/svg10.dtd">
<svg version="1.0" xmlns="http://www.w3.org/2000/svg"
 width="70.000000pt" height="70.000000pt" viewBox="0 0 1920.000000 1920.000000"
 preserveAspectRatio="xMidYMid meet">

<g transform="translate(0.000000,1920.000000) scale(0.100000,-0.100000)"
fill="#000000" stroke="none">
<path d="M4244 15409 c-18 -20 -19 -43 -19 -506 l0 -485 24 -19 c23 -19 120
-19 5351 -19 5231 0 5328 0 5351 19 l24 19 0 485 c0 463 -1 486 -19 506 l-19
21 -5337 0 -5337 0 -19 -21z"/>
<path d="M5308 13686 c-102 -36 -181 -109 -227 -205 -26 -56 -26 -57 -26 -301
l0 -245 29 -63 c37 -80 122 -161 203 -194 l58 -23 1033 -3 1032 -2 0 -2959 0
-2959 88 -12 c255 -34 528 -86 744 -140 64 -17 122 -30 127 -30 8 0 11 911 11
3050 l0 3050 360 0 360 0 2 -3185 3 -3185 120 -57 c243 -116 584 -310 759
-434 38 -27 71 -47 73 -45 2 1 3 1556 3 3454 l0 3452 380 0 380 0 1 -3772 c1
-2075 1 -3776 0 -3780 0 -3 12 -20 27 -36 392 -419 646 -763 893 -1207 l44
-80 3 4437 2 4438 1033 2 1032 3 58 23 c81 33 166 114 203 194 l29 63 0 245
c0 244 0 245 -27 302 -35 76 -95 138 -170 179 l-63 34 -4270 2 c-3496 2 -4277
0 -4307 -11z"/>
</g>
</svg>
